<?xml version="1.0" encoding="utf-8"?>
<!-- Generator: Adobe Illustrator 22.0.1, SVG Export Plug-In . SVG Version: 6.00 Build 0)  -->
<svg version="1.1" id="Layer_1" xmlns="http://www.w3.org/2000/svg" xmlns:xlink="http://www.w3.org/1999/xlink" x="0px" y="0px"
	 viewBox="0 0 330.1 122.6" style="enable-background:new 0 0 330.1 122.6;" xml:space="preserve">
<style type="text/css">
	.st0{fill:#61DAFB;}
	.st1{fill:#FFFFFF;}
</style>
<path class="st0" d="M34.8,26.6L77,0v84.7c0,0-1.2,37.9-37.5,37.9C1,122.6,0,84.3,0,84.3V66h17.6h8l-6.4,16.5h14.6l-4.9,24
	l29.8-35.3H42.2l10.5-26.5H34.4L34.8,26.6z"/>
<g>
	<path class="st1" d="M136.3,30h5.9v19.9c0,1.4-0.2,2.7-0.7,3.9c-0.5,1.1-1.2,2.1-2,2.9c-0.9,0.8-1.9,1.4-3.1,1.8
		c-1.2,0.4-2.4,0.6-3.8,0.6c-1.4,0-2.7-0.2-3.9-0.5c-1.2-0.4-2.2-0.9-3-1.6c-0.9-0.7-1.5-1.6-2-2.8c-0.5-1.1-0.7-2.4-0.7-4h6
		c0,0.8,0.1,1.4,0.3,2c0.2,0.5,0.4,1,0.7,1.3c0.3,0.3,0.7,0.6,1.2,0.7c0.5,0.1,1,0.2,1.5,0.2c1.1,0,2-0.4,2.7-1.2s1-1.9,1-3.3
		L136.3,30L136.3,30z"/>
	<path class="st1" d="M158,48.7h-11.1v-4.6H158V48.7z"/>
	<path class="st1" d="M184.6,34.8h-8.8v23.9h-5.9V34.8h-8.7V30h23.4L184.6,34.8L184.6,34.8z"/>
	<path class="st1" d="M198.6,48.2h-4.7v10.5h-5.9V30h10.7c1.7,0,3.1,0.2,4.5,0.6c1.3,0.4,2.4,0.9,3.3,1.7c0.9,0.7,1.6,1.6,2.1,2.7
		c0.5,1.1,0.7,2.3,0.7,3.7c0,1.1-0.1,2-0.4,2.8c-0.2,0.8-0.6,1.6-1,2.2c-0.4,0.7-1,1.2-1.6,1.7c-0.6,0.5-1.3,0.9-2.1,1.3l6.2,11.7
		v0.3h-6.4L198.6,48.2z M193.8,43.4h4.8c0.8,0,1.5-0.1,2-0.3c0.6-0.2,1.1-0.5,1.5-0.9c0.4-0.4,0.7-0.8,0.9-1.3
		c0.2-0.5,0.3-1.1,0.3-1.7c0-1.4-0.4-2.4-1.2-3.2s-1.9-1.2-3.5-1.2h-4.8L193.8,43.4L193.8,43.4z"/>
	<path class="st1" d="M229.9,52.8h-10.4l-2,5.9h-6.3L222,30h5.5l10.7,28.7h-6.3L229.9,52.8z M221.1,48h7.2l-3.6-10.7L221.1,48z"/>
	<path class="st1" d="M240.9,58.7V30h8.8c1.9,0,3.7,0.3,5.3,1c1.6,0.7,3,1.6,4.1,2.8c1.1,1.2,2,2.6,2.7,4.3c0.6,1.7,1,3.5,1,5.6V45
		c0,2.1-0.3,3.9-1,5.6c-0.6,1.7-1.5,3.1-2.7,4.3s-2.6,2.1-4.2,2.8c-1.6,0.7-3.4,1-5.3,1L240.9,58.7L240.9,58.7z M246.8,34.8V54h2.9
		c2.3,0,4.1-0.8,5.3-2.3c1.2-1.5,1.8-3.8,1.8-6.6v-1.3c0-2.9-0.6-5.1-1.8-6.6c-1.2-1.5-3-2.3-5.3-2.3L246.8,34.8L246.8,34.8z"/>
	<path class="st1" d="M273.4,58.7h-5.9V30h5.9V58.7z"/>
	<path class="st1" d="M302.3,58.7h-5.9l-11.5-18.9v18.9h-5.9V30h5.9l11.5,18.9V30h5.9L302.3,58.7L302.3,58.7z"/>
	<path class="st1" d="M330.1,55.1c-0.3,0.4-0.8,0.8-1.4,1.3c-0.6,0.5-1.3,0.9-2.2,1.3c-0.9,0.4-1.9,0.7-3.2,1
		c-1.2,0.3-2.6,0.4-4.2,0.4c-1.9,0-3.5-0.3-5.1-0.9c-1.5-0.6-2.8-1.5-3.9-2.7c-1.1-1.2-1.9-2.6-2.5-4.4c-0.6-1.7-0.9-3.7-0.9-5.9
		v-1.7c0-2.2,0.3-4.2,0.9-5.9s1.4-3.2,2.4-4.4s2.3-2.1,3.8-2.7c1.5-0.6,3.1-0.9,5-0.9c1.9,0,3.5,0.2,4.8,0.7c1.4,0.5,2.5,1.1,3.4,2
		c0.9,0.8,1.6,1.8,2.1,3c0.5,1.2,0.8,2.5,1,3.8h-5.8c-0.1-0.7-0.3-1.4-0.6-2c-0.2-0.6-0.6-1.1-1-1.5s-1-0.7-1.6-1
		c-0.6-0.2-1.4-0.3-2.3-0.3c-2,0-3.6,0.8-4.6,2.3c-1.1,1.5-1.6,3.8-1.6,6.8v1.7c0,3,0.6,5.3,1.7,6.8c1.1,1.5,2.8,2.3,5,2.3
		c0.7,0,1.3,0,1.9-0.1s1-0.2,1.4-0.3c0.4-0.1,0.7-0.3,0.9-0.5s0.5-0.3,0.6-0.5v-5h-5.4v-4.4h11.3V55.1z"/>
	<path class="st1" d="M135,102.2l8.2-23.7h4.1l-10.6,28.7h-3.4l-10.6-28.7h4.1L135,102.2z"/>
	<path class="st1" d="M155.3,107.2h-3.8V78.5h3.8V107.2z"/>
	<path class="st1" d="M178.4,93.9H166v10.2h14.5v3.1h-18.2V78.5h18v3.1H166v9.2h12.4V93.9z"/>
	<path class="st1" d="M191.3,98.1l0.6,3.8l0.8-3.4l5.7-20h3.2l5.5,20l0.8,3.5l0.6-3.9l4.5-19.6h3.8l-7,28.7h-3.5l-5.9-20.9l-0.5-2.2
		l-0.5,2.2l-6.1,20.9h-3.5L183,78.5h3.8L191.3,98.1z"/>
	<path class="st1" d="M236.3,99.9c0-0.7-0.1-1.3-0.3-1.8s-0.6-1-1.1-1.4c-0.5-0.4-1.2-0.8-2.1-1.2c-0.9-0.4-2-0.8-3.4-1.2
		c-1.4-0.4-2.7-0.9-3.9-1.4c-1.1-0.5-2.1-1.1-2.9-1.8c-0.8-0.7-1.4-1.4-1.9-2.3c-0.4-0.9-0.7-1.9-0.7-3s0.2-2.2,0.7-3.1
		c0.5-1,1.1-1.8,2-2.5c0.9-0.7,1.9-1.3,3.1-1.6c1.2-0.4,2.5-0.6,4-0.6c1.6,0,3.1,0.2,4.3,0.7c1.3,0.5,2.3,1.1,3.2,1.9s1.5,1.7,2,2.8
		s0.7,2.1,0.7,3.3h-3.8c0-0.8-0.1-1.5-0.4-2.2c-0.3-0.7-0.6-1.3-1.2-1.8s-1.2-0.9-2-1.2c-0.8-0.3-1.7-0.4-2.8-0.4
		c-1,0-1.9,0.1-2.6,0.4c-0.8,0.2-1.4,0.6-1.9,1c-0.5,0.4-0.8,0.9-1.1,1.5c-0.2,0.6-0.4,1.2-0.4,1.9c0,0.6,0.1,1.2,0.4,1.7
		c0.3,0.5,0.7,1,1.2,1.4c0.5,0.4,1.2,0.8,2.1,1.2c0.8,0.4,1.9,0.7,3,1c1.6,0.5,3,1,4.2,1.5c1.2,0.6,2.2,1.2,2.9,1.9
		c0.8,0.7,1.3,1.5,1.7,2.4c0.4,0.9,0.6,1.9,0.6,3c0,1.2-0.2,2.2-0.7,3.2c-0.5,0.9-1.1,1.8-2,2.4c-0.9,0.7-1.9,1.2-3.2,1.5
		c-1.2,0.4-2.6,0.5-4.1,0.5c-0.9,0-1.8-0.1-2.6-0.2s-1.7-0.4-2.5-0.7c-0.8-0.3-1.6-0.7-2.2-1.2c-0.7-0.5-1.3-1.1-1.8-1.7
		s-0.9-1.4-1.2-2.2s-0.4-1.7-0.4-2.6h3.8c0,1,0.2,1.8,0.6,2.5c0.4,0.7,0.9,1.3,1.6,1.7c0.7,0.5,1.4,0.8,2.2,1
		c0.8,0.2,1.7,0.3,2.7,0.3c2,0,3.5-0.4,4.6-1.2C235.7,102.5,236.3,101.3,236.3,99.9z"/>
</g>
</svg>
